<svg width="256" height="301" viewBox="0 0 256 301" fill="none" xmlns="http://www.w3.org/2000/svg">
<path d="M78.389 0.858C76.9236 0.867439 75.4836 1.2417 74.199 1.947C69.981 4.285 68.434 9.704 70.771 13.919L80.294 31.115C57.35 45.31 42.147 69.558 42.147 97.233V102.375C37.74 97.305 31.263 94.104 24.026 94.104C10.766 94.104 0 104.87 0 118.129V192.138C0 205.396 10.767 216.163 24.026 216.163C31.263 216.163 37.74 212.961 42.146 207.891V218.258C42.146 232.235 53.583 243.671 67.56 243.671H74.008V276.594C74.008 289.854 84.775 300.62 98.034 300.62C111.293 300.62 122.059 289.853 122.059 276.594V243.671H133.215V276.594C133.215 289.854 143.982 300.62 157.241 300.62C170.5 300.62 181.266 289.853 181.266 276.594V243.671H187.715C201.691 243.671 213.128 232.235 213.128 218.258V207.891C217.534 212.961 224.012 216.163 231.249 216.163C244.508 216.163 255.274 205.396 255.274 192.138V118.129C255.274 104.87 244.508 94.104 231.249 94.104C224.012 94.104 217.534 97.305 213.128 102.375V98.103V97.858C213.13 97.598 213.128 97.39 213.128 97.233C213.128 69.563 197.89 45.339 174.954 31.143L184.504 13.919C186.84 9.704 185.294 4.285 181.076 1.947C179.791 1.2417 178.351 0.867439 176.886 0.858C173.771 0.828 170.714 2.47 169.104 5.375L159.118 23.415C149.354 19.812 138.73 17.837 127.638 17.837C116.556 17.837 105.912 19.791 96.156 23.387L86.171 5.375C84.56 2.47 81.504 0.83 78.389 0.858Z" fill="white"/>
<path d="M24.026 100.362C14.132 100.362 6.259 108.235 6.259 118.129V192.138C6.259 202.032 14.132 209.905 24.026 209.905C33.92 209.905 41.794 202.032 41.794 192.138V118.129C41.794 108.235 33.92 100.362 24.026 100.362ZM231.25 100.362C221.355 100.362 213.482 108.235 213.482 118.129V192.138C213.482 202.032 221.355 209.905 231.25 209.905C241.144 209.905 249.017 202.032 249.017 192.138V118.129C249.017 108.235 241.144 100.362 231.25 100.362Z" fill="#A4C639"/>
<path d="M98.034 184.818C88.14 184.818 80.266 192.691 80.266 202.586V276.594C80.266 286.488 88.14 294.361 98.034 294.361C107.928 294.361 115.801 286.488 115.801 276.594V202.586C115.801 192.691 107.928 184.818 98.034 184.818ZM157.241 184.818C147.346 184.818 139.473 192.691 139.473 202.586V276.594C139.473 286.488 147.346 294.361 157.241 294.361C167.135 294.361 175.008 286.488 175.008 276.594V202.586C175.008 192.691 167.135 184.818 157.241 184.818Z" fill="#A4C639"/>
<path d="M78.443 7.117C78.0228 7.12206 77.6108 7.23427 77.246 7.443C75.979 8.145 75.563 9.601 76.266 10.871L88.783 33.482C64.703 46.012 48.437 69.823 48.405 97.151H206.87C206.837 69.823 190.572 46.011 166.492 33.482L179.008 10.872C179.712 9.602 179.295 8.145 178.028 7.443C177.663 7.23414 177.251 7.12193 176.831 7.117C175.931 7.107 175.08 7.557 174.6 8.423L161.92 31.278C151.548 26.678 139.914 24.095 127.637 24.095C115.36 24.095 103.727 26.677 93.354 31.278L80.674 8.423C80.4577 8.02181 80.1353 7.68779 79.742 7.45746C79.3488 7.22713 78.8997 7.10935 78.444 7.117H78.443ZM48.405 103.409V218.259C48.3996 220.776 48.8914 223.269 49.8521 225.596C50.8128 227.922 52.2236 230.036 54.0034 231.815C55.7832 233.595 57.897 235.006 60.2234 235.966C62.5498 236.927 65.0431 237.419 67.56 237.413H187.715C190.232 237.419 192.725 236.927 195.052 235.966C197.378 235.006 199.492 233.595 201.272 231.815C203.052 230.035 204.463 227.921 205.423 225.595C206.384 223.268 206.876 220.775 206.87 218.258V103.41H48.405V103.409Z" fill="#A4C639"/>
<path d="M91.068 54.923C87.451 54.923 84.456 57.917 84.456 61.534C84.456 65.152 87.451 68.146 91.068 68.146C94.686 68.146 97.68 65.152 97.68 61.534C97.68 57.917 94.686 54.923 91.068 54.923ZM164.206 54.923C160.588 54.923 157.594 57.917 157.594 61.534C157.594 65.152 160.588 68.146 164.206 68.146C167.823 68.146 170.818 65.152 170.818 61.534C170.818 57.917 167.823 54.923 164.206 54.923Z" fill="white"/>
</svg>
