<svg width="200" height="200" viewBox="0 0 200 200" fill="none" xmlns="http://www.w3.org/2000/svg">
<path d="M43.8 0H156.2C180.391 0 200 19.6094 200 43.8V156.2C200 180.391 180.391 200 156.2 200H43.8C19.6094 200 0 180.391 0 156.2V43.8C0 19.6094 19.6094 0 43.8 0Z" fill="url(#paint0_linear)"/>
<path d="M64.0953 145.164L64.1141 145.17L57.2758 157.014C54.7797 161.337 49.2516 162.819 44.9281 160.323C40.6055 157.827 39.1234 152.298 41.6195 147.975L46.657 139.25L47.1406 138.412C48.0039 137.172 50.1344 135.03 54.3961 135.433C54.3961 135.433 64.425 136.521 65.1508 141.734C65.1508 141.734 65.2492 143.448 64.0953 145.164ZM161.082 114.914H139.759C138.306 114.816 137.673 114.298 137.423 113.996L137.407 113.969L114.581 74.4328L114.552 74.4523L113.183 72.4898C110.939 69.0586 107.377 77.8336 107.377 77.8336C103.123 87.6117 107.98 98.7281 109.673 102.088L141.378 157.002C143.873 161.325 149.402 162.807 153.726 160.31C158.048 157.814 159.53 152.286 157.034 147.962L149.106 134.231C148.952 133.898 148.685 132.995 150.311 132.991H161.082C166.074 132.991 170.121 128.945 170.121 123.952C170.121 118.96 166.074 114.913 161.082 114.913V114.914ZM119.665 127.202C119.665 127.202 120.803 132.991 116.399 132.991H37.5719C32.5797 132.991 28.5328 128.945 28.5328 123.952C28.5328 118.96 32.5797 114.913 37.5719 114.913H57.8375C61.1094 114.724 61.8844 112.835 61.8844 112.835L61.9031 112.845L88.3563 67.0258L88.3484 67.0242C88.8305 66.1391 88.4289 65.3023 88.3594 65.1703L79.6227 50.0383C77.1266 45.7156 78.6078 40.1867 82.9313 37.6914C87.2547 35.1953 92.7828 36.6758 95.2789 40.9992L99.3305 48.0172L103.375 41.0117C105.871 36.6891 111.399 35.207 115.723 37.7039C120.046 40.2 121.527 45.7273 119.031 50.0508L82.2203 113.809C82.0594 114.197 82.0102 114.806 83.2078 114.913H105.211L105.216 115.128C105.216 115.128 117.933 115.326 119.665 127.202Z" fill="white"/>
<defs>
<linearGradient id="paint0_linear" x1="100" y1="0" x2="100" y2="200" gradientUnits="userSpaceOnUse">
<stop stop-color="#17C9FB"/>
<stop offset="1" stop-color="#1A74E8"/>
</linearGradient>
</defs>
</svg>
