<svg width="35" height="45" viewBox="0 0 35 45" fill="none" xmlns="http://www.w3.org/2000/svg">
<path d="M28.7184 5.84639L28.8559 6.125H29.1667H31.0807C32.0441 6.125 32.8426 6.45474 33.5066 7.12063C34.1691 7.78502 34.5 8.59399 34.5 9.58008V41.0449C34.5 42.031 34.1691 42.84 33.5066 43.5044C32.8426 44.1703 32.0441 44.5 31.0807 44.5H3.91927C2.94972 44.5 2.14903 44.1804 1.48639 43.5414C0.82452 42.9032 0.5 42.1396 0.5 41.2207V9.58008C0.5 8.59399 0.830875 7.78502 1.49338 7.12063C2.15737 6.45474 2.95587 6.125 3.91927 6.125H5.83333H6.14406L6.28165 5.84639C6.76859 4.86033 7.83841 4.2793 9.7526 4.2793H15.5859H16.0859V3.7793V1.8457C16.0859 1.31226 16.2233 1.00289 16.4115 0.821348C16.6032 0.636539 16.9346 0.5 17.5 0.5C18.0654 0.5 18.3968 0.636539 18.5885 0.821348C18.7767 1.00289 18.9141 1.31226 18.9141 1.8457V3.7793V4.2793H19.4141H25.2474C27.1616 4.2793 28.2314 4.86033 28.7184 5.84639ZM31.0807 41.7207H31.5807V41.2207V9.4043V8.9043H31.0807H29.1667H28.7457L28.674 9.31914C28.4727 10.4838 28.0738 11.292 27.525 11.8089C26.984 12.3185 26.2432 12.5957 25.2474 12.5957H9.7526C9.12038 12.5957 8.49472 12.3307 7.8666 11.725C7.17279 11.056 6.79484 10.5709 6.65482 10.2559C6.48059 9.86388 6.37381 9.54814 6.32291 9.30275L6.24027 8.9043H5.83333H3.91927H3.41927V9.4043V41.2207V41.7207H3.91927H31.0807ZM24.3359 6.9707H10.6641C10.2754 6.9707 9.89404 7.07519 9.61666 7.36941C9.34449 7.6581 9.2526 8.04527 9.2526 8.4375C9.2526 8.82973 9.34449 9.2169 9.61666 9.50559C9.89404 9.79981 10.2754 9.9043 10.6641 9.9043H24.3359C24.7246 9.9043 25.106 9.79981 25.3833 9.50559C25.6555 9.2169 25.7474 8.82973 25.7474 8.4375C25.7474 8.04527 25.6555 7.6581 25.3833 7.36941C25.106 7.07519 24.7246 6.9707 24.3359 6.9707Z" fill="#84BF93" stroke="#628E6D"/>
</svg>
