<svg width="50" height="50" viewBox="0 0 50 50" fill="none" xmlns="http://www.w3.org/2000/svg">
<path d="M10.9166 19.7501C10.9166 11.9637 17.2136 5.66675 25 5.66675C32.7863 5.66675 39.0833 11.9637 39.0833 19.7501C39.0833 23.949 36.8454 29.0152 34.0783 33.6555C31.3239 38.2747 28.0975 42.3875 26.2194 44.6599C25.5859 45.4192 24.4343 45.419 23.801 44.6595C21.9131 42.3878 18.6813 38.2748 15.9241 33.6553C13.1545 29.0151 10.9166 23.949 10.9166 19.7501ZM20.9636 23.7865C22.0341 24.857 23.486 25.4584 25 25.4584C26.5139 25.4584 27.9658 24.857 29.0364 23.7865C30.1069 22.716 30.7083 21.264 30.7083 19.7501C30.7083 18.2361 30.1069 16.7842 29.0364 15.7137C27.9658 14.6432 26.5139 14.0417 25 14.0417C23.486 14.0417 22.0341 14.6432 20.9636 15.7137C19.893 16.7842 19.2916 18.2361 19.2916 19.7501C19.2916 21.264 19.893 22.716 20.9636 23.7865Z" fill="#84BF93" stroke="#628E6D"/>
</svg>
