<svg width="170" height="215" viewBox="0 0 170 215" fill="none" xmlns="http://www.w3.org/2000/svg">
<path d="M141.979 113.903C142.272 146.35 169.697 157.147 170 157.285C169.768 158.046 165.618 172.671 155.552 187.778C146.85 200.839 137.818 213.852 123.591 214.121C109.612 214.386 105.117 205.609 89.1339 205.609C73.1559 205.609 68.1615 213.852 54.928 214.386C41.1952 214.92 30.7376 200.263 21.964 187.25C4.03435 160.632 -9.66724 112.032 8.73059 79.2271C17.8701 62.9357 34.204 52.6201 51.9318 52.3555C65.4169 52.0916 78.1456 61.6721 86.3893 61.6721C94.6276 61.6721 110.096 50.1508 126.357 51.8427C133.163 52.1339 152.272 54.6659 164.542 73.1095C163.553 73.7389 141.742 86.7782 141.979 113.904V113.903ZM115.706 34.2324C122.998 25.1695 127.904 12.5537 126.566 0C116.056 0.43371 103.349 7.19168 95.8103 16.2491C89.0548 24.2707 83.1387 37.1088 84.7351 49.4136C96.4492 50.3445 108.416 43.3008 115.707 34.2324" fill="black"/>
</svg>
