<svg width="45" height="45" viewBox="0 0 45 45" fill="none" xmlns="http://www.w3.org/2000/svg">
<path d="M17.5 22.2929L11.75 28.0429V22.5V22H11.25H6.75C4.55114 22 2.75 20.1989 2.75 18V6.75C2.75 4.55114 4.55114 2.75 6.75 2.75H20.25C22.4489 2.75 24.25 4.55114 24.25 6.75V13H22.905C21.4801 13 20.1322 13.7637 19.1566 14.7724C18.1841 15.7777 17.5 17.1107 17.5 18.36V22.2929ZM33.75 35.5H33.25V36V41.5429L27.3536 35.6464L27.2071 35.5H27H24.75C22.5511 35.5 20.75 33.6989 20.75 31.5V20.25C20.75 18.0511 22.5511 16.25 24.75 16.25H38.25C40.4489 16.25 42.25 18.0511 42.25 20.25V31.5C42.25 33.6989 40.4489 35.5 38.25 35.5H33.75Z" fill="#84BF93" stroke="#628E6D"/>
</svg>
