<svg width="50" height="50" viewBox="0 0 50 50" fill="none" xmlns="http://www.w3.org/2000/svg">
<path d="M30.75 22.9167C30.75 26.0989 28.1822 28.6667 25 28.6667C21.8178 28.6667 19.25 26.0989 19.25 22.9167V10.4167C19.25 7.23456 21.8178 4.66675 25 4.66675C28.1822 4.66675 30.75 7.23456 30.75 10.4167V22.9167Z" fill="#84BF93" stroke="#628E6D"/>
<path d="M25 33.8334C30.8585 33.8334 35.6438 29.2111 35.9054 23.4167H39.0746C38.8349 30.2894 33.6729 35.8757 27.0118 36.8386L26.5833 36.9005V37.3334V43.2501H23.4166V37.3334V36.9005L22.9882 36.8386C16.327 35.8757 11.165 30.2894 10.9253 23.4167H14.0946C14.3562 29.2111 19.1414 33.8334 25 33.8334Z" fill="#84BF93" stroke="#628E6D"/>
</svg>
