<svg width="35" height="40" viewBox="0 0 35 40" fill="none" xmlns="http://www.w3.org/2000/svg">
<path d="M28.875 17.5V18H29.375H31.25C33.0442 18 34.5 19.4558 34.5 21.25V36.25C34.5 38.0442 33.0442 39.5 31.25 39.5H3.75C1.95583 39.5 0.5 38.0442 0.5 36.25V21.25C0.5 19.4558 1.95583 18 3.75 18H5.625H6.125V17.5V11.875C6.125 5.60427 11.2293 0.5 17.5 0.5C23.7707 0.5 28.875 5.60427 28.875 11.875V17.5ZM23.125 18H23.625V17.5V11.875C23.625 8.4973 20.8777 5.75 17.5 5.75C14.1223 5.75 11.375 8.4973 11.375 11.875V17.5V18H11.875H23.125Z" fill="#84BF93" stroke="#628E6D"/>
</svg>
