<svg width="46" height="46" viewBox="0 0 46 46" fill="none" xmlns="http://www.w3.org/2000/svg">
<path d="M31.575 17.4751V18.5154L32.3873 17.8655L40.95 11.0154V35.1848L32.3873 28.3347L31.575 27.6848V28.7251V32.4751C31.575 33.3371 31.2325 34.1637 30.6231 34.7732C30.0136 35.3827 29.1869 35.7251 28.325 35.7251H7.69995C6.838 35.7251 6.01135 35.3827 5.40185 34.7732C4.79236 34.1637 4.44995 33.3371 4.44995 32.4751V13.7251C4.44995 12.8631 4.79236 12.0365 5.40185 11.427C6.01135 10.8175 6.838 10.4751 7.69995 10.4751H28.325C29.1869 10.4751 30.0136 10.8175 30.6231 11.427C31.2325 12.0365 31.575 12.8631 31.575 13.7251V17.4751Z" fill="#84BF93" stroke="#628E6D"/>
</svg>
